<mxfile host="app.diagrams.net" modified="2023-12-18T16:48:09.522Z" agent="Mozilla/5.0 (Windows NT 10.0; Win64; x64) AppleWebKit/537.36 (KHTML, like Gecko) Chrome/120.0.0.0 Safari/537.36" version="22.1.11" etag="orh3ifxTWeUo0A4n1rhH" type="github">
  <diagram name="Page-1" id="ESPoG0u-J2EMwPfZBZ9z">
    <mxGraphModel>
      <root>
        <mxCell id="0" />
        <mxCell id="1" parent="0" />
      </root>
    </mxGraphModel>
  </diagram>
</mxfile>
